<svg xmlns="http://www.w3.org/2000/svg" width="86.916" height="98.472" viewBox="0 0 86.916 98.472">
  <g id="high-five" transform="translate(-30.042)">
    <g id="Group_5133" data-name="Group 5133" transform="translate(64.094 3.923)">
      <path id="Path_6058" data-name="Path 6058" d="M243.205,24.947a1.286,1.286,0,0,1-1.286-1.286V21.681a1.286,1.286,0,0,1,2.573,0v1.979A1.287,1.287,0,0,1,243.205,24.947Z" transform="translate(-235.222 -20.395)" fill="#eaeaea"/>
      <path id="Path_6059" data-name="Path 6059" d="M272.883,37.056a1.286,1.286,0,0,1-.91-2.2l.99-.99a1.286,1.286,0,1,1,1.819,1.819l-.99.99A1.283,1.283,0,0,1,272.883,37.056Z" transform="translate(-259.191 -30.974)" fill="#eaeaea"/>
      <path id="Path_6060" data-name="Path 6060" d="M209.372,37.056a1.282,1.282,0,0,1-.91-.377l-.99-.99a1.286,1.286,0,1,1,1.819-1.819l.99.99a1.286,1.286,0,0,1-.91,2.2Z" transform="translate(-207.097 -30.974)" fill="#eaeaea"/>
    </g>
    <g id="Group_5134" data-name="Group 5134" transform="translate(32.629 62.301)">
      <path id="Path_6061" data-name="Path 6061" d="M127.614,358.617a1.484,1.484,0,0,1-1.484,1.484h-5.144a1.487,1.487,0,0,1-1.316-2.173q.8-1.52,1.417-3.024a38.519,38.519,0,0,0,.156-28.857,1.485,1.485,0,1,1,2.688-1.263,37.329,37.329,0,0,1,2.725,10.559,41.315,41.315,0,0,1-2.373,19.562q-.421,1.1-.926,2.229h2.773A1.482,1.482,0,0,1,127.614,358.617Z" transform="translate(-104.883 -323.93)" fill="#50515b"/>
      <path id="Path_6062" data-name="Path 6062" d="M51.606,358.617a1.485,1.485,0,0,1-1.484,1.484H44.978a1.485,1.485,0,0,1-1.316-2.173c.53-1.013,1-2.023,1.415-3.024a38.526,38.526,0,0,0,.158-28.857,1.484,1.484,0,1,1,2.686-1.263,37.206,37.206,0,0,1,2.727,10.559A41.315,41.315,0,0,1,48.275,354.9q-.421,1.1-.926,2.229h2.773A1.483,1.483,0,0,1,51.606,358.617Z" transform="translate(-43.493 -323.93)" fill="#50515b"/>
    </g>
    <path id="Path_6063" data-name="Path 6063" d="M58.871,199.425s-7.628,3.814-15.35,2.322a15.731,15.731,0,0,1-8.314-4.378s2.416-16.187,6.945-25.647a23.825,23.825,0,0,1,1.918-3.361l2.816.218,5.692.441c0,.792.1,2.341.309,4.362C53.591,180.293,55.527,192.738,58.871,199.425Z" transform="translate(-4.172 -135.98)" fill="#ef4a6e"/>
    <path id="Path_6064" data-name="Path 6064" d="M43.521,201.746a15.731,15.731,0,0,1-8.314-4.378s3.1-20.777,8.862-29.008l2.816.218.815.805C45.593,173.712,40.658,190.461,43.521,201.746Z" transform="translate(-4.172 -135.98)" fill="#d8254f"/>
    <g id="Group_5135" data-name="Group 5135" transform="translate(30.041 6.066)">
      <path id="Path_6065" data-name="Path 6065" d="M108.851,65.1v7.521a1.476,1.476,0,0,1-.113.568,43.719,43.719,0,0,1-3.287,6.1,47.855,47.855,0,0,1-4.227,5.692c-6.119,7.036-13.375,10.7-21.1,10.7-.709,0-1.421-.03-2.138-.093a1.484,1.484,0,0,1,.257-2.957c7.643.663,14.62-2.569,20.739-9.6a44.417,44.417,0,0,0,4.061-5.5,42.969,42.969,0,0,0,2.838-5.221V65.1a1.484,1.484,0,1,1,2.969,0Z" transform="translate(-67.671 -57.45)" fill="#fcd2be"/>
      <path id="Path_6066" data-name="Path 6066" d="M57.5,31.54V46.53A12.448,12.448,0,0,1,39.9,57.854v0a12.448,12.448,0,0,1-7.166-9.617,4.013,4.013,0,1,1,4.162-6.626l1.045-5.991.713-4.079Z" transform="translate(-30.041 -31.54)" fill="#fcd2be"/>
    </g>
    <path id="Path_6067" data-name="Path 6067" d="M39.9,74.982a12.448,12.448,0,0,1-7.166-9.617,4.013,4.013,0,1,1,4.162-6.626l1.045-5.991,3.275.665C39.837,55.794,34.02,64.484,39.9,74.982Z" transform="translate(-0.001 -42.603)" fill="#fab998"/>
    <path id="Path_6068" data-name="Path 6068" d="M74.12,0A10.81,10.81,0,0,1,63.31,10.81H52.019v1a4.321,4.321,0,0,1-4.322,4.32,4.014,4.014,0,0,0-4.277-.908V10.81A10.811,10.811,0,0,1,54.23,0Z" transform="translate(-10.805)" fill="#6b4b3d"/>
    <path id="Path_6069" data-name="Path 6069" d="M63.052,0H54.229a10.811,10.811,0,0,0-10.81,10.81v4.415a4.014,4.014,0,0,1,4.277.908,4.321,4.321,0,0,0,4.322-4.32v-1h.223A10.812,10.812,0,0,1,63.052,0Z" transform="translate(-10.805)" fill="#5b3d2d"/>
    <g id="Group_5136" data-name="Group 5136" transform="translate(45.395 14.606)">
      <path id="Path_6070" data-name="Path 6070" d="M111.355,80.971a1.484,1.484,0,0,1-1.484-1.484V77.428a1.484,1.484,0,1,1,2.969,0v2.058A1.485,1.485,0,0,1,111.355,80.971Z" transform="translate(-109.871 -75.944)" fill="#50515b"/>
      <path id="Path_6071" data-name="Path 6071" d="M139.173,80.971a1.484,1.484,0,0,1-1.484-1.484V77.428a1.484,1.484,0,1,1,2.969,0v2.058A1.485,1.485,0,0,1,139.173,80.971Z" transform="translate(-132.339 -75.944)" fill="#50515b"/>
    </g>
    <path id="Path_6072" data-name="Path 6072" d="M92.909,125.8l-.08,0a7.3,7.3,0,0,1-6.3-3.636,1.484,1.484,0,0,1,2.578-1.473,4.362,4.362,0,0,0,3.883,2.145,1.484,1.484,0,0,1-.078,2.966Z" transform="translate(-45.462 -96.875)" fill="#fff"/>
    <path id="Path_6073" data-name="Path 6073" d="M105.451,137.726a47.856,47.856,0,0,1-4.227,5.692c-6.119,7.036-13.375,10.7-21.1,10.7-.709,0-1.421-.03-2.138-.093a1.484,1.484,0,0,1,.257-2.957c7.643.663,14.62-2.569,20.739-9.6a44.418,44.418,0,0,0,4.061-5.5Z" transform="translate(-37.629 -109.819)" fill="#d8254f"/>
    <g id="Group_5137" data-name="Group 5137" transform="translate(32.629 93.275)">
      <path id="Path_6074" data-name="Path 6074" d="M51.606,488.69a1.485,1.485,0,0,1-1.484,1.484H44.978A1.485,1.485,0,0,1,43.662,488c.53-1.013,1-2.023,1.415-3.024h3.2q-.421,1.1-.926,2.229h2.773A1.484,1.484,0,0,1,51.606,488.69Z" transform="translate(-43.493 -484.977)" fill="#3d8299"/>
      <path id="Path_6075" data-name="Path 6075" d="M127.614,488.69a1.484,1.484,0,0,1-1.484,1.484h-5.144A1.487,1.487,0,0,1,119.67,488q.8-1.52,1.417-3.024h3.2q-.421,1.1-.926,2.229h2.773A1.483,1.483,0,0,1,127.614,488.69Z" transform="translate(-104.883 -484.977)" fill="#3d8299"/>
    </g>
    <g id="Group_5138" data-name="Group 5138" transform="translate(72.974 12.23)">
      <path id="Path_6076" data-name="Path 6076" d="M273.539,94.119a1.478,1.478,0,0,1-.621-.137c-12.143-5.608-19.211-20.131-19.506-20.747a1.487,1.487,0,0,1-.146-.641V65.073a1.484,1.484,0,0,1,2.969,0v7.169c1.048,2.045,7.662,14.3,17.928,19.044a1.485,1.485,0,0,1-.624,2.832Z" transform="translate(-253.266 -63.589)" fill="#fcd2be"/>
      <path id="Path_6077" data-name="Path 6077" d="M349.873,391.817a1.484,1.484,0,0,1-1.269.714H343.46a1.484,1.484,0,0,1,0-2.969h2.771c-.336-.746-.643-1.486-.926-2.223a41.353,41.353,0,0,1-2.009-22.026,1.484,1.484,0,0,1,2.923.519,38.336,38.336,0,0,0,2.284,21.507q.623,1.5,1.415,3.02A1.482,1.482,0,0,1,349.873,391.817Z" transform="translate(-324.915 -306.296)" fill="#fcd2be"/>
      <path id="Path_6078" data-name="Path 6078" d="M400.164,391.8a1.484,1.484,0,0,1-1.269.714h-5.146a1.484,1.484,0,0,1,0-2.969h2.773q-.5-1.116-.924-2.223a41.334,41.334,0,0,1-2.009-22.032,1.485,1.485,0,0,1,2.923.523,38.306,38.306,0,0,0,2.282,21.509q.626,1.5,1.417,3.02A1.487,1.487,0,0,1,400.164,391.8Z" transform="translate(-365.532 -306.277)" fill="#fcd2be"/>
    </g>
    <path id="Path_6079" data-name="Path 6079" d="M332.989,46.193l-3.026-4.334-21.851-31.29C307.1,6.808,307.493.026,317.982.026A66.622,66.622,0,0,1,324.808.3c7.808.811,14.436,3.978,16.132,16.011C343.117,31.746,332.989,46.193,332.989,46.193Z" transform="translate(-224.289 -0.021)" fill="#6b4b3d"/>
    <path id="Path_6080" data-name="Path 6080" d="M404.669,47.332,401.643,43c.772-8.692,3.054-40.724-5.156-41.562,7.808.811,14.436,3.978,16.132,16.011C414.8,32.884,404.669,47.332,404.669,47.332Z" transform="translate(-295.968 -1.16)" fill="#5b3d2d"/>
    <path id="Path_6081" data-name="Path 6081" d="M309.858,205.972a60.557,60.557,0,0,0,21.06,1.122,39.035,39.035,0,0,0,7.242-1.518c0-26.322-10.2-38.6-10.2-38.6l-2.262.249-6.573.728C317.812,182.9,309.858,205.972,309.858,205.972Z" transform="translate(-226 -134.863)" fill="#00c7a9"/>
    <path id="Path_6082" data-name="Path 6082" d="M395.4,207.094a39.034,39.034,0,0,0,7.242-1.518c0-26.322-10.2-38.6-10.2-38.6l-2.262.249L389.7,168S398.876,187.665,395.4,207.094Z" transform="translate(-290.487 -134.863)" fill="#04af92"/>
    <g id="Group_5139" data-name="Group 5139" transform="translate(83.823 8.569)">
      <path id="Path_6083" data-name="Path 6083" d="M362.973,236.944c-2.364,0-4.18-1.569-5.491-2.7-.793-.685-1.686-1.462-2.176-1.422a1.82,1.82,0,0,0-.948.724,1.484,1.484,0,0,1-2.28-1.9,4.358,4.358,0,0,1,2.986-1.782c1.723-.141,3.063,1.015,4.359,2.133,1.812,1.565,3.014,2.483,4.8,1.68a1.337,1.337,0,0,0,.809-.953c.225-.825.252-2.885-2.091-7.406a48.265,48.265,0,0,0-3.036-5.031,1.484,1.484,0,0,1,2.422-1.717c.713,1,6.923,9.957,5.57,14.932a4.3,4.3,0,0,1-2.456,2.882A5.957,5.957,0,0,1,362.973,236.944Z" transform="translate(-343.645 -184.596)" fill="#fcd2be"/>
      <path id="Path_6084" data-name="Path 6084" d="M335.959,57.787a4.019,4.019,0,0,1-1.514.954,12.442,12.442,0,0,1-24.767-1.706v-10.5s5.516.2,7.693-1.979a11.237,11.237,0,0,0,9.991,4.5v0a11.818,11.818,0,0,0,2.921-.536v3.6l0,0a4.012,4.012,0,0,1,5.674,5.674Z" transform="translate(-309.678 -44.553)" fill="#fcd2be"/>
    </g>
    <path id="Path_6085" data-name="Path 6085" d="M400.586,74.409a4.019,4.019,0,0,1-1.514.954,12.447,12.447,0,0,1-9.377,10.382c6.462-3.545,2.349-19.854,2.294-20.074v0a11.818,11.818,0,0,0,2.921-.536v3.6l0,0a4.012,4.012,0,0,1,5.674,5.674Z" transform="translate(-290.482 -52.606)" fill="#fab998"/>
    <g id="Group_5140" data-name="Group 5140" transform="translate(87.608 14.601)">
      <path id="Path_6086" data-name="Path 6086" d="M358.66,80.946a1.484,1.484,0,0,1-1.484-1.484V77.4a1.484,1.484,0,1,1,2.969,0v2.058A1.484,1.484,0,0,1,358.66,80.946Z" transform="translate(-351.826 -75.919)" fill="#50515b"/>
      <path id="Path_6087" data-name="Path 6087" d="M330.841,80.946a1.484,1.484,0,0,1-1.484-1.484V77.4a1.484,1.484,0,1,1,2.969,0v2.058A1.484,1.484,0,0,1,330.841,80.946Z" transform="translate(-329.357 -75.919)" fill="#50515b"/>
    </g>
    <path id="Path_6088" data-name="Path 6088" d="M355.719,125.78a1.484,1.484,0,0,1-.078-2.966,4.361,4.361,0,0,0,3.883-2.145,1.484,1.484,0,1,1,2.577,1.473,7.3,7.3,0,0,1-6.3,3.636Z" transform="translate(-261.843 -96.856)" fill="#fff"/>
    <g id="Group_5141" data-name="Group 5141" transform="translate(90.035 93.275)">
      <path id="Path_6089" data-name="Path 6089" d="M349.917,488a1.483,1.483,0,0,1-1.314,2.171h-5.144a1.484,1.484,0,0,1,0-2.969h2.771c-.336-.746-.643-1.486-.926-2.223h3.2Q349.126,486.477,349.917,488Z" transform="translate(-341.975 -484.978)" fill="#f9ce55"/>
      <path id="Path_6090" data-name="Path 6090" d="M400.164,489.454a1.484,1.484,0,0,1-1.269.714h-5.146a1.484,1.484,0,0,1,0-2.969h2.773q-.5-1.116-.924-2.223h3.2q.626,1.5,1.417,3.02A1.487,1.487,0,0,1,400.164,489.454Z" transform="translate(-382.593 -484.977)" fill="#f9ce55"/>
    </g>
  </g>
</svg>
