<svg width="12" height="12" viewBox="0 0 12 12" fill="none" xmlns="http://www.w3.org/2000/svg">
<path d="M9.55451 -0.00012207H2.44549C1.79712 0.000696748 1.17551 0.258481 0.717122 0.716999C0.258593 1.17539 0.000803517 1.797 0 2.44536V9.55439C0.000818819 10.2028 0.258603 10.8244 0.717122 11.2828C1.17551 11.7413 1.79712 11.9991 2.44549 11.9999H9.55451C10.2029 11.9991 10.8245 11.7413 11.2829 11.2828C11.7414 10.8244 11.9992 10.2028 12 9.55439V2.44536C11.9992 1.797 11.7414 1.17539 11.2829 0.716999C10.8245 0.25847 10.2029 0.000681447 9.55451 -0.00012207ZM2.44549 0.978072H9.55451C9.94359 0.978482 10.3165 1.13323 10.5915 1.40834C10.8667 1.68332 11.0214 2.05629 11.0218 2.44536V5.51082H8.78237C8.63007 4.62925 8.06906 3.87213 7.27005 3.46967C6.47118 3.06722 5.52872 3.06722 4.72971 3.46967C3.93084 3.87213 3.36981 4.62922 3.21739 5.51082H0.97809V2.44536C0.978499 2.05629 1.13325 1.68335 1.40836 1.40834C1.68334 1.13322 2.0563 0.978457 2.44538 0.978072H2.44549ZM7.8535 6.00005C7.8535 6.49173 7.65822 6.96322 7.31064 7.31083C6.96306 7.65844 6.49158 7.8537 5.99986 7.8537C5.50814 7.8537 5.03669 7.65841 4.68908 7.31083C4.34147 6.96325 4.14622 6.49177 4.14622 6.00005C4.14622 5.50834 4.3415 5.03688 4.68908 4.68927C5.03666 4.34166 5.50814 4.14641 5.99986 4.14641C6.49126 4.14696 6.96251 4.34238 7.30994 4.68997C7.65752 5.03742 7.85294 5.50865 7.8535 6.00005ZM9.55444 11.022H2.44542C2.05634 11.0216 1.6834 10.8669 1.40839 10.5918C1.13327 10.3168 0.978509 9.94382 0.978125 9.55474V6.48929H3.21756C3.36986 7.37085 3.93087 8.12797 4.72988 8.53043C5.52875 8.93289 6.47121 8.93289 7.27022 8.53043C8.06909 8.12797 8.63012 7.37089 8.78255 6.48929H11.022V9.55474H11.0218C11.0214 9.94382 10.8667 10.3168 10.5917 10.5918C10.3166 10.8669 9.94363 11.0216 9.55455 11.022H9.55444ZM8.40199 2.27139C8.40186 2.14161 8.45331 2.01715 8.54515 1.92544C8.63685 1.8336 8.76131 1.78215 8.89109 1.78229H9.53589C9.80596 1.78229 10.025 2.00118 10.025 2.27139C10.025 2.54145 9.80596 2.76048 9.53589 2.76048H8.89109C8.76131 2.76048 8.63685 2.70903 8.54515 2.61719C8.45331 2.52549 8.40186 2.40103 8.40199 2.27139Z" fill="white"/>
</svg>
