<svg xmlns="http://www.w3.org/2000/svg" width="18.594" height="16.98" viewBox="0 0 18.594 16.98">
  <path id="Shape_15" data-name="Shape 15" d="M1666.742,5349.92a.6.6,0,0,1-.6-.6v-4.46a10.762,10.762,0,0,0-.232-2.869,2,2,0,0,0-.755-1.013,2.161,2.161,0,0,0-1.258-.361,2.906,2.906,0,0,0-1.689.516,2.592,2.592,0,0,0-1.026,1.368,11.773,11.773,0,0,0-.278,3.146v3.674a.6.6,0,0,1-.6.6h-2.418a.6.6,0,0,1-.6-.6v-10.562a.6.6,0,0,1,.6-.6h2.159a.6.6,0,0,1,.6.6v.8c0,.333.164.387.388.14a5.376,5.376,0,0,1,4.127-1.858,5.431,5.431,0,0,1,2.193.432,3.665,3.665,0,0,1,1.5,1.1,3.972,3.972,0,0,1,.71,1.521,11.358,11.358,0,0,1,.2,2.438v5.981a.6.6,0,0,1-.6.6Zm-14.969,0a.6.6,0,0,1-.6-.6v-10.562a.6.6,0,0,1,.6-.6h2.417a.6.6,0,0,1,.6.6v10.562a.6.6,0,0,1-.6.6Zm0-13.626a.605.605,0,0,1-.6-.6v-2.146a.6.6,0,0,1,.6-.6h2.417a.6.6,0,0,1,.6.6v2.146a.6.6,0,0,1-.6.6Z" transform="translate(-1651.168 -5332.939)" fill="#fff"/>
</svg>
