<svg xmlns="http://www.w3.org/2000/svg" xmlns:xlink="http://www.w3.org/1999/xlink" width="241.347" height="78.452" viewBox="0 0 241.347 78.452">
  <defs>
    <linearGradient id="linear-gradient" x1="0.5" x2="0.5" y2="1" gradientUnits="objectBoundingBox">
      <stop offset="0" stop-color="#5132ea"/>
      <stop offset="1" stop-color="#a360f0"/>
    </linearGradient>
  </defs>
  <g id="Nav" transform="translate(-204.653 -38)">
    <g id="Logo">
      <g id="heart" transform="translate(133.227 39)">
        <g id="Group_2018" data-name="Group 2018" transform="translate(71.426 0)">
          <path id="Path_5015" data-name="Path 5015" d="M123.894,35.091a8.581,8.581,0,0,1-1.422-4.737v-.027a22.645,22.645,0,0,0-.188-2.921,1.2,1.2,0,0,0-1.975-.759,22.5,22.5,0,0,1-2.143,1.612.779.779,0,0,1-1.208-.712C118.291,12.027,106.7.046,96.624,0c-4.1-.019,5.3,9.921-5.411,20.088-.942.894-1.768,1.746-2.493,2.557a.78.78,0,0,1-1.217-.074,22.37,22.37,0,0,1-2.987-5.82,1.205,1.205,0,0,0-2.082-.366A22.346,22.346,0,0,0,77.58,30.34v.014a3.464,3.464,0,0,1-.911,2.326,20.369,20.369,0,0,0-5.244,13.714c0,4.842,2,10.328,5.624,15.449A44.309,44.309,0,0,0,93.008,75.4c.822.423,1.671.829,2.523,1.209a9.4,9.4,0,0,0,3.625.837,9.035,9.035,0,0,0,3.865-.773c.9-.4,1.8-.826,2.668-1.273a44.306,44.306,0,0,0,15.956-13.56c3.627-5.121,5.624-10.608,5.624-15.449a20.446,20.446,0,0,0-3.374-11.3Z" transform="translate(-71.426 0)" opacity="0.74" fill="url(#linear-gradient)"/>
          <path id="Path_5016" data-name="Path 5016" d="M262.413,46.393c0,4.842-2,10.329-5.624,15.45A44.312,44.312,0,0,1,240.832,75.4c-.87.446-1.767.874-2.668,1.273a9.033,9.033,0,0,1-3.748.775,9.352,9.352,0,0,1-3.665-.8c.879-.391,1.753-.809,2.6-1.244a44.312,44.312,0,0,0,15.956-13.561c3.626-5.121,5.624-10.608,5.624-15.45a20.44,20.44,0,0,0-3.376-11.3,8.576,8.576,0,0,1-1.421-4.737v-.028a22.519,22.519,0,0,0-.189-2.917,1.2,1.2,0,0,0-1.976-.762q-.609.518-1.255.993a1.277,1.277,0,0,1-2.026-1.1c.6-11.812-6.264-21.423-14.012-25.017C230.584.544,230.8,0,231.769,0c10.072.047,21.667,12.027,20.333,27.547a.779.779,0,0,0,1.209.711,22.352,22.352,0,0,0,2.141-1.611,1.2,1.2,0,0,1,1.976.762,22.546,22.546,0,0,1,.189,2.917v.028a8.578,8.578,0,0,0,1.421,4.737,20.443,20.443,0,0,1,3.375,11.3Z" transform="translate(-206.57 0)" fill="url(#linear-gradient)"/>
          <g id="Group_2012" data-name="Group 2012" transform="translate(7.756 34.141)">
            <path id="Path_5017" data-name="Path 5017" d="M151.547,225.7a11.091,11.091,0,0,0-8.118,3.591.776.776,0,0,1-1.133,0,11.091,11.091,0,0,0-8.118-3.591c-6.34,0-11.481,5.485-11.481,12.252,0,5.914,5.4,15.961,17.371,22.112q1.092.561,2.256,1.077a1.334,1.334,0,0,0,1.077,0q1.165-.515,2.256-1.077c11.966-6.151,17.37-16.2,17.37-22.112C163.026,231.18,157.887,225.7,151.547,225.7Z" transform="translate(-122.696 -225.694)" fill="#fca5cd"/>
            <path id="Path_5018" data-name="Path 5018" d="M256.765,237.943c0,5.914-5.4,15.961-17.37,22.112q-1.092.561-2.257,1.077a1.333,1.333,0,0,1-1.077,0q-1.164-.515-2.256-1.076c-.224-.115-.445-.231-.663-.35,11.5-6.176,16.705-15.959,16.705-21.762a12.193,12.193,0,0,0-8.022-11.685,10.775,10.775,0,0,1,3.459-.567C251.626,225.691,256.765,231.176,256.765,237.943Z" transform="translate(-216.434 -225.691)" fill="#fc7cb6"/>
          </g>
          <g id="microphone_2_" data-name="microphone (2)" transform="translate(22.12 42.55)">
            <path id="Path_5025" data-name="Path 5025" d="M148.52,11.765h.4a3.524,3.524,0,0,0,3.52-3.52V3.553A3.54,3.54,0,0,0,148.922,0h-.4A3.54,3.54,0,0,0,145,3.547v4.7A3.524,3.524,0,0,0,148.52,11.765Zm0-10.76h.4a2.529,2.529,0,0,1,2.5,2.246h-.82a.5.5,0,0,0,0,1.006h.838V5.4h-1.374a.5.5,0,0,0,0,1.006h1.374v1.14H150.6a.5.5,0,0,0,0,1.006h.819a2.517,2.517,0,0,1-2.5,2.212h-.4a2.517,2.517,0,0,1-2.5-2.212h.819a.5.5,0,1,0,0-1.006h-.838V6.4h1.374a.5.5,0,0,0,0-1.006h-1.374V4.257h.838a.5.5,0,1,0,0-1.006h-.82A2.529,2.529,0,0,1,148.52,1.006Z" transform="translate(-142.855)" fill="#e94690"/>
            <path id="Path_5026" data-name="Path 5026" d="M92.732,225.5a.5.5,0,0,0-1.006,0,4.86,4.86,0,1,1-9.721,0,.5.5,0,0,0-1.006,0,5.874,5.874,0,0,0,5.363,5.844v2.268H83.648a.5.5,0,1,0,0,1.006h6.436a.5.5,0,0,0,0-1.006H87.369v-2.268A5.874,5.874,0,0,0,92.732,225.5Z" transform="translate(-81 -217.458)" fill="#e94690"/>
          </g>
        </g>
        <g id="Group_2019" data-name="Group 2019" transform="translate(121.509 12.124)">
          <path id="Path_5022" data-name="Path 5022" d="M402.5,83.754a4.654,4.654,0,0,0,4.654,4.654.779.779,0,0,0,.779-.779V84.8a4.654,4.654,0,0,0-4.654-4.654.779.779,0,0,0-.779.779Z" transform="translate(-402.501 -80.148)" fill="#fb1466"/>
        </g>
        <g id="Group_2020" data-name="Group 2020" transform="translate(72.657 9.089)">
          <path id="Path_5023" data-name="Path 5023" d="M85,63.691a4.654,4.654,0,0,1-4.654,4.654.779.779,0,0,1-.779-.779V64.739a4.654,4.654,0,0,1,4.654-4.654.779.779,0,0,1,.779.779Z" transform="translate(-79.566 -60.085)" fill="#ffbb63"/>
        </g>
        <g id="Group_2021" data-name="Group 2021" transform="translate(85.566 0.183)">
          <path id="Path_5024" data-name="Path 5024" d="M164.9,4.816a4.654,4.654,0,0,0,4.654,4.654.779.779,0,0,0,.779-.779V5.864a4.654,4.654,0,0,0-4.654-4.654.779.779,0,0,0-.779.779Z" transform="translate(-164.899 -1.21)" fill="#0bba9d"/>
        </g>
      </g>
      <text id="mellow" transform="translate(351 97)" fill="#fff" font-size="55" font-family="SegoeUI-Bold, Segoe UI" font-weight="700"><tspan x="-94.437" y="0">mellow</tspan></text>
    </g>
  </g>
</svg>
