<svg xmlns="http://www.w3.org/2000/svg" xmlns:xlink="http://www.w3.org/1999/xlink" width="848" height="954" viewBox="0 0 848 954">
  <defs>
    <clipPath id="clip-path">
      <rect id="Rectangle_5" data-name="Rectangle 5" width="848" height="954" transform="translate(1072 951)" fill="none" stroke="#707070" stroke-width="1"/>
    </clipPath>
    <filter id="Rectangle_52" x="-21.87" y="19.34" width="462" height="443" filterUnits="userSpaceOnUse">
      <feOffset dy="30" input="SourceAlpha"/>
      <feGaussianBlur stdDeviation="27" result="blur"/>
      <feFlood flood-color="#e6e6e6" flood-opacity="0.8"/>
      <feComposite operator="in" in2="blur"/>
      <feComposite in="SourceGraphic"/>
    </filter>
    <linearGradient id="linear-gradient" x1="0.5" x2="0.5" y2="1" gradientUnits="objectBoundingBox">
      <stop offset="0" stop-color="#5132ea"/>
      <stop offset="1"/>
    </linearGradient>
    <filter id="Rectangle_52-2" x="308.13" y="126.34" width="462" height="443" filterUnits="userSpaceOnUse">
      <feOffset dy="30" input="SourceAlpha"/>
      <feGaussianBlur stdDeviation="27" result="blur-2"/>
      <feFlood flood-color="#e6e6e6" flood-opacity="0.8"/>
      <feComposite operator="in" in2="blur-2"/>
      <feComposite in="SourceGraphic"/>
    </filter>
    <filter id="Rectangle_52-3" x="-15.87" y="337.34" width="462" height="443" filterUnits="userSpaceOnUse">
      <feOffset dy="30" input="SourceAlpha"/>
      <feGaussianBlur stdDeviation="27" result="blur-3"/>
      <feFlood flood-color="#e6e6e6" flood-opacity="0.8"/>
      <feComposite operator="in" in2="blur-3"/>
      <feComposite in="SourceGraphic"/>
    </filter>
  </defs>
  <g id="Mask_Group_4" data-name="Mask Group 4" transform="translate(-1072 -951)" clip-path="url(#clip-path)">
    <g id="_2" data-name="2">
      <path id="Path_6057" data-name="Path 6057" d="M466,0C850.266-20.532,932,208.635,932,466S723.365,932,466,932,306.339,602.858,0,466,81.734,20.532,466,0Z" transform="matrix(0.891, -0.454, 0.454, 0.891, 1024.502, 1251.204)" fill="#ffb727" opacity="0.06"/>
      <g id="_4" data-name="4" transform="translate(128 -1631)">
        <g transform="matrix(1, 0, 0, 1, 944, 2582)" filter="url(#Rectangle_52)">
          <rect id="Rectangle_52-4" data-name="Rectangle 52" width="300" height="281" rx="5" transform="translate(59.13 70.34)" fill="#fff"/>
        </g>
        <text id="Really_get_to_know_a_person" data-name="Really get to know
a person" transform="translate(1033.5 2850.75)" fill="#000916" font-size="24" font-family="TitilliumWeb-Regular, Titillium Web"><tspan x="0" y="0">Really get to know</tspan><tspan x="0" y="28.8">a person</tspan></text>
        <g id="man" transform="translate(955.89 2720.467)">
          <path id="Path_6037" data-name="Path 6037" d="M143.216,85.39v7.289a1.485,1.485,0,0,1-1.485,1.485H87.517a1.485,1.485,0,0,1-1.485-1.485V85.39A13.846,13.846,0,0,1,99.88,71.545a7.688,7.688,0,0,0,6.454-3.5,8.727,8.727,0,0,0,1.235-5.442l.028-.069A18.382,18.382,0,0,1,96.243,45.545v-.581A4.579,4.579,0,0,1,91.6,40.408V32.692c-.059-2.687.063-12.161,6.907-18.757,7.957-7.67,20.568-7.042,29.7-2.939a.372.372,0,0,1-.013.683l-2.382.98a.372.372,0,0,0,.1.713l1.157.124A18.74,18.74,0,0,1,140.947,22.1a.4.4,0,0,1-.048.459,11.233,11.233,0,0,0-3.067,7.716V40.408a4.557,4.557,0,0,1-4.556,4.556H133v.581a18.383,18.383,0,0,1-11.353,16.988l.028.069a8.723,8.723,0,0,0,1.235,5.442,7.688,7.688,0,0,0,6.454,3.5A13.846,13.846,0,0,1,143.216,85.39Z" transform="translate(-6.514 -6.52)" fill="#ffdfba"/>
          <path id="Path_6038" data-name="Path 6038" d="M143.216,348.719v7.289a1.485,1.485,0,0,1-1.485,1.485H87.517a1.485,1.485,0,0,1-1.485-1.485v-7.289A13.847,13.847,0,0,1,99.88,334.875a7.687,7.687,0,0,0,6.455-3.5,12.744,12.744,0,0,0,16.579,0,7.687,7.687,0,0,0,6.455,3.5A13.847,13.847,0,0,1,143.216,348.719Z" transform="translate(-6.514 -269.85)" fill="#603aeb"/>
          <path id="Path_6039" data-name="Path 6039" d="M165.342,22.1a.394.394,0,0,1-.048.457,11.239,11.239,0,0,0-3.067,7.717V40.408a4.565,4.565,0,0,1-4.827,4.556V33.5a8.912,8.912,0,0,0-8.912-8.912H129.551a8.912,8.912,0,0,0-8.912,8.912V44.964A4.579,4.579,0,0,1,116,40.408V32.692c-.059-2.687.063-12.161,6.907-18.757,7.957-7.67,20.568-7.042,29.7-2.938a.372.372,0,0,1-.012.683l-2.382.981a.371.371,0,0,0,.1.713l1.157.124A18.732,18.732,0,0,1,165.342,22.1Z" transform="translate(-30.91 -6.521)" fill="#42434d"/>
          <path id="Path_6040" data-name="Path 6040" d="M177.793,118.254a18.381,18.381,0,0,1-18.38,18.38c-9.56,0-18.38-7.432-18.38-18.962V106.2a8.912,8.912,0,0,1,8.912-8.912h18.937a8.912,8.912,0,0,1,8.912,8.912Z" transform="translate(-51.303 -79.229)" fill="#ffebd2"/>
          <path id="Path_6041" data-name="Path 6041" d="M155.251,142.87a2.935,2.935,0,0,1-2.669,5.2A18.383,18.383,0,0,1,141.032,131V118.951a8.872,8.872,0,0,1,1.564-5.044,2.195,2.195,0,0,1,4.006,1.331v12.049A18.246,18.246,0,0,0,155.251,142.87Z" transform="translate(-51.303 -91.976)" fill="#fff3e4"/>
          <path id="Path_6042" data-name="Path 6042" d="M215.432,304.81a18.431,18.431,0,0,1-14.53,0,11.505,11.505,0,0,0,.21-3.049l.028-.069a18.418,18.418,0,0,0,14.055,0l.028.069A11.5,11.5,0,0,0,215.432,304.81Z" transform="translate(-100.057 -245.68)" fill="#ffd6a6"/>
          <path id="Path_6043" data-name="Path 6043" d="M107.36,339.36a7.55,7.55,0,0,1-2.212.342A13.884,13.884,0,0,0,91.23,353.5v1.4a2.6,2.6,0,0,1-2.6,2.6H87.516a1.485,1.485,0,0,1-1.485-1.485v-7.289a13.847,13.847,0,0,1,13.848-13.845,7.687,7.687,0,0,0,6.454-3.5,12.855,12.855,0,0,0,1.766,1.267A3.709,3.709,0,0,1,107.36,339.36Z" transform="translate(-6.513 -269.85)" fill="url(#linear-gradient)"/>
          <path id="Path_6044" data-name="Path 6044" d="M267.924,339.36a7.55,7.55,0,0,0,2.212.342,13.884,13.884,0,0,1,13.918,13.8v1.4a2.6,2.6,0,0,0,2.6,2.6h1.114a1.485,1.485,0,0,0,1.485-1.485v-7.289a13.847,13.847,0,0,0-13.848-13.845,7.687,7.687,0,0,1-6.454-3.5,12.851,12.851,0,0,1-1.766,1.267A3.709,3.709,0,0,0,267.924,339.36Z" transform="translate(-152.551 -269.85)" fill="url(#linear-gradient)"/>
          <path id="Path_6045" data-name="Path 6045" d="M152.594,11.679c-2.183.9-2.494,1.1-3.251.979-12.193-1.89-22.891,3.155-26.524,15v0a8.867,8.867,0,0,0-2.18,5.837v6.967A2.321,2.321,0,1,1,116,40.408V32.692c-.059-2.687.063-12.161,6.907-18.757,7.957-7.67,20.568-7.042,29.7-2.939a.372.372,0,0,1-.013.683Z" transform="translate(-30.911 -6.52)" fill="#4d4e59"/>
          <path id="Path_6046" data-name="Path 6046" d="M138.187,78.87v8.774a1.485,1.485,0,0,1-2.971,0V78.87a12.353,12.353,0,0,0-12.36-12.36,9.12,9.12,0,0,1-7.846-4.405,1.485,1.485,0,0,1,2.537-1.545,6.17,6.17,0,0,0,5.309,2.98,15.322,15.322,0,0,1,15.331,15.33ZM112.268,63.981a1.485,1.485,0,0,1-1.135,1.767,14.216,14.216,0,0,1-11.05-2.161,9.007,9.007,0,0,1-6.719,2.923A12.353,12.353,0,0,0,81,78.87v8.774a1.485,1.485,0,0,1-2.971,0V78.87a15.322,15.322,0,0,1,15.33-15.33,6.192,6.192,0,0,0,6.206-6.19v-.391a19.9,19.9,0,0,1-11.311-17.2A6.061,6.061,0,0,1,83.6,33.887v-7.7c-.081-3.769.478-13.208,7.361-19.843,8.5-8.192,22.128-7.672,32.149-2.848a1.489,1.489,0,0,1,.314,2.474A20.047,20.047,0,0,1,135.694,14.8a1.641,1.641,0,0,1,.342,1.167,1.5,1.5,0,0,1-.426.942,9.7,9.7,0,0,0-2.807,6.85V33.888a1.485,1.485,0,1,1-2.971,0V23.756a12.643,12.643,0,0,1,2.886-8.074A17.157,17.157,0,0,0,120.4,8.452l-2.611-.28a1.487,1.487,0,0,1-.407-2.85l1.187-.489c-15.463-5.391-32,.6-32,21.338v7.716A3.067,3.067,0,0,0,88.244,36.6V26.976a10.409,10.409,0,0,1,10.4-10.4h18.937a10.409,10.409,0,0,1,10.4,10.4V39.137a19.893,19.893,0,0,1-25.467,18.947,9.081,9.081,0,0,1-.777,3.033,11.248,11.248,0,0,0,8.769,1.729A1.486,1.486,0,0,1,112.268,63.981Zm-4.158-8.062a16.914,16.914,0,0,0,16.9-16.9V26.975a7.435,7.435,0,0,0-7.426-7.426H98.641a7.435,7.435,0,0,0-7.426,7.426V39.024A16.914,16.914,0,0,0,108.11,55.919Zm15.039,25.6h-4.456a1.485,1.485,0,0,0,0,2.971h4.456a1.485,1.485,0,1,0,0-2.971Z" transform="translate(0 0)"/>
        </g>
      </g>
      <g id="_4-2" data-name="4" transform="translate(458 -1524)">
        <g transform="matrix(1, 0, 0, 1, 614, 2475)" filter="url(#Rectangle_52-2)">
          <rect id="Rectangle_52-5" data-name="Rectangle 52" width="300" height="281" rx="5" transform="translate(389.13 177.34)" fill="#fff"/>
        </g>
        <text id="Listen_to_their_stories_in_their_own_voice_" data-name="Listen to their stories in
their own voice
" transform="translate(1033.5 2850.75)" fill="#000916" font-size="24" font-family="TitilliumWeb-Regular, Titillium Web"><tspan x="0" y="0">Listen to their stories in</tspan><tspan x="0" y="28.8">their own voice</tspan><tspan font-family="TitilliumWeb-Bold, Titillium Web" font-weight="700"><tspan x="0" y="57.6"></tspan></tspan></text>
        <g id="voice-mail" transform="translate(1031.334 2711.334)">
          <path id="Path_6047" data-name="Path 6047" d="M196.051,14.551V49.86A14.556,14.556,0,0,1,181.5,64.411h-5.82L158.22,52.479,120,26.579V14.551A14.723,14.723,0,0,1,134.745,0H181.5A14.556,14.556,0,0,1,196.051,14.551Z" transform="translate(-96.719)" fill="#17ace8"/>
          <path id="Path_6048" data-name="Path 6048" d="M354.832,14.551V49.86a14.556,14.556,0,0,1-14.551,14.551h-5.82L317,52.479V0h23.281A14.556,14.556,0,0,1,354.832,14.551Z" transform="translate(-255.499)" fill="#1689fc"/>
          <path id="Path_6049" data-name="Path 6049" d="M67.321,122H14.551A14.556,14.556,0,0,0,0,136.551v29.1a14.552,14.552,0,0,0,11.641,14.26v14.842a2.979,2.979,0,0,0,1.63,2.619,3.173,3.173,0,0,0,1.28.291,2.746,2.746,0,0,0,1.746-.582L39.015,180.2H67.321a14.556,14.556,0,0,0,14.551-14.551v-29.1A14.556,14.556,0,0,0,67.321,122Z" transform="translate(0 -98.331)" fill="#fedb41"/>
          <path id="Path_6050" data-name="Path 6050" d="M251.936,136.551v29.1A14.556,14.556,0,0,1,237.385,180.2H211V122h26.385A14.556,14.556,0,0,1,251.936,136.551Z" transform="translate(-170.064 -98.331)" fill="#ffae34"/>
          <path id="Path_6051" data-name="Path 6051" d="M146.13,304.91a2.882,2.882,0,0,1-2.91,2.91H107.91a2.91,2.91,0,1,1,0-5.82h35.31A2.882,2.882,0,0,1,146.13,304.91Z" transform="translate(-84.629 -243.409)" fill="#57555c"/>
          <path id="Path_6052" data-name="Path 6052" d="M231.565,304.91a2.882,2.882,0,0,1-2.91,2.91H211V302h17.655A2.882,2.882,0,0,1,231.565,304.91Z" transform="translate(-170.064 -243.409)" fill="#3c3a41"/>
          <path id="Path_6053" data-name="Path 6053" d="M71.641,235.281a11.641,11.641,0,1,1,11.641-11.641A11.652,11.652,0,0,1,71.641,235.281Z" transform="translate(-48.359 -170.87)" fill="#787780"/>
          <path id="Path_6054" data-name="Path 6054" d="M252.835,235.281a11.642,11.642,0,1,1,0-23.281,11.641,11.641,0,1,1,0,23.281Z" transform="translate(-194.244 -170.87)" fill="#57555c"/>
          <path id="Path_6055" data-name="Path 6055" d="M95.82,242a5.82,5.82,0,1,0,5.82,5.82A5.828,5.828,0,0,0,95.82,242Z" transform="translate(-72.539 -195.05)" fill="#cae8f9"/>
          <path id="Path_6056" data-name="Path 6056" d="M277.82,242a5.82,5.82,0,1,0,5.82,5.82A5.828,5.828,0,0,0,277.82,242Z" transform="translate(-219.23 -195.05)" fill="#b7e0f6"/>
        </g>
      </g>
      <g id="_4-3" data-name="4" transform="translate(134 -1313)">
        <g transform="matrix(1, 0, 0, 1, 938, 2264)" filter="url(#Rectangle_52-3)">
          <rect id="Rectangle_52-6" data-name="Rectangle 52" width="300" height="281" rx="5" transform="translate(65.13 388.34)" fill="#fff"/>
        </g>
        <text id="Talk_to_them_and_see_If_you_hit_it_off_" data-name="Talk to them and see If
you hit it off
" transform="translate(1033.5 2850.75)" fill="#000916" font-size="24" font-family="TitilliumWeb-Regular, Titillium Web"><tspan x="0" y="0">Talk to them and see If</tspan><tspan x="0" y="28.8">you hit it off</tspan><tspan font-family="TitilliumWeb-Bold, Titillium Web" font-weight="700"><tspan x="0" y="57.6"></tspan></tspan></text>
        <g id="high-five" transform="translate(1009.458 2710.764)">
          <g id="Group_5133" data-name="Group 5133" transform="translate(64.094 3.923)">
            <path id="Path_6058" data-name="Path 6058" d="M243.205,24.947a1.286,1.286,0,0,1-1.286-1.286V21.681a1.286,1.286,0,0,1,2.573,0v1.979A1.287,1.287,0,0,1,243.205,24.947Z" transform="translate(-235.222 -20.395)" fill="#eaeaea"/>
            <path id="Path_6059" data-name="Path 6059" d="M272.883,37.056a1.286,1.286,0,0,1-.91-2.2l.99-.99a1.286,1.286,0,1,1,1.819,1.819l-.99.99A1.283,1.283,0,0,1,272.883,37.056Z" transform="translate(-259.191 -30.974)" fill="#eaeaea"/>
            <path id="Path_6060" data-name="Path 6060" d="M209.372,37.056a1.282,1.282,0,0,1-.91-.377l-.99-.99a1.286,1.286,0,1,1,1.819-1.819l.99.99a1.286,1.286,0,0,1-.91,2.2Z" transform="translate(-207.097 -30.974)" fill="#eaeaea"/>
          </g>
          <g id="Group_5134" data-name="Group 5134" transform="translate(32.629 62.301)">
            <path id="Path_6061" data-name="Path 6061" d="M127.614,358.617a1.484,1.484,0,0,1-1.484,1.484h-5.144a1.487,1.487,0,0,1-1.316-2.173q.8-1.52,1.417-3.024a38.519,38.519,0,0,0,.156-28.857,1.485,1.485,0,1,1,2.688-1.263,37.329,37.329,0,0,1,2.725,10.559,41.315,41.315,0,0,1-2.373,19.562q-.421,1.1-.926,2.229h2.773A1.482,1.482,0,0,1,127.614,358.617Z" transform="translate(-104.883 -323.93)" fill="#50515b"/>
            <path id="Path_6062" data-name="Path 6062" d="M51.606,358.617a1.485,1.485,0,0,1-1.484,1.484H44.978a1.485,1.485,0,0,1-1.316-2.173c.53-1.013,1-2.023,1.415-3.024a38.526,38.526,0,0,0,.158-28.857,1.484,1.484,0,1,1,2.686-1.263,37.206,37.206,0,0,1,2.727,10.559A41.315,41.315,0,0,1,48.275,354.9q-.421,1.1-.926,2.229h2.773A1.483,1.483,0,0,1,51.606,358.617Z" transform="translate(-43.493 -323.93)" fill="#50515b"/>
          </g>
          <path id="Path_6063" data-name="Path 6063" d="M58.871,199.425s-7.628,3.814-15.35,2.322a15.731,15.731,0,0,1-8.314-4.378s2.416-16.187,6.945-25.647a23.825,23.825,0,0,1,1.918-3.361l2.816.218,5.692.441c0,.792.1,2.341.309,4.362C53.591,180.293,55.527,192.738,58.871,199.425Z" transform="translate(-4.172 -135.98)" fill="#ef4a6e"/>
          <path id="Path_6064" data-name="Path 6064" d="M43.521,201.746a15.731,15.731,0,0,1-8.314-4.378s3.1-20.777,8.862-29.008l2.816.218.815.805C45.593,173.712,40.658,190.461,43.521,201.746Z" transform="translate(-4.172 -135.98)" fill="#d8254f"/>
          <g id="Group_5135" data-name="Group 5135" transform="translate(30.041 6.066)">
            <path id="Path_6065" data-name="Path 6065" d="M108.851,65.1v7.521a1.476,1.476,0,0,1-.113.568,43.719,43.719,0,0,1-3.287,6.1,47.855,47.855,0,0,1-4.227,5.692c-6.119,7.036-13.375,10.7-21.1,10.7-.709,0-1.421-.03-2.138-.093a1.484,1.484,0,0,1,.257-2.957c7.643.663,14.62-2.569,20.739-9.6a44.417,44.417,0,0,0,4.061-5.5,42.969,42.969,0,0,0,2.838-5.221V65.1a1.484,1.484,0,1,1,2.969,0Z" transform="translate(-67.671 -57.45)" fill="#fcd2be"/>
            <path id="Path_6066" data-name="Path 6066" d="M57.5,31.54V46.53A12.448,12.448,0,0,1,39.9,57.854v0a12.448,12.448,0,0,1-7.166-9.617,4.013,4.013,0,1,1,4.162-6.626l1.045-5.991.713-4.079Z" transform="translate(-30.041 -31.54)" fill="#fcd2be"/>
          </g>
          <path id="Path_6067" data-name="Path 6067" d="M39.9,74.982a12.448,12.448,0,0,1-7.166-9.617,4.013,4.013,0,1,1,4.162-6.626l1.045-5.991,3.275.665C39.837,55.794,34.02,64.484,39.9,74.982Z" transform="translate(-0.001 -42.603)" fill="#fab998"/>
          <path id="Path_6068" data-name="Path 6068" d="M74.12,0A10.81,10.81,0,0,1,63.31,10.81H52.019v1a4.321,4.321,0,0,1-4.322,4.32,4.014,4.014,0,0,0-4.277-.908V10.81A10.811,10.811,0,0,1,54.23,0Z" transform="translate(-10.805)" fill="#6b4b3d"/>
          <path id="Path_6069" data-name="Path 6069" d="M63.052,0H54.229a10.811,10.811,0,0,0-10.81,10.81v4.415a4.014,4.014,0,0,1,4.277.908,4.321,4.321,0,0,0,4.322-4.32v-1h.223A10.812,10.812,0,0,1,63.052,0Z" transform="translate(-10.805)" fill="#5b3d2d"/>
          <g id="Group_5136" data-name="Group 5136" transform="translate(45.395 14.606)">
            <path id="Path_6070" data-name="Path 6070" d="M111.355,80.971a1.484,1.484,0,0,1-1.484-1.484V77.428a1.484,1.484,0,1,1,2.969,0v2.058A1.485,1.485,0,0,1,111.355,80.971Z" transform="translate(-109.871 -75.944)" fill="#50515b"/>
            <path id="Path_6071" data-name="Path 6071" d="M139.173,80.971a1.484,1.484,0,0,1-1.484-1.484V77.428a1.484,1.484,0,1,1,2.969,0v2.058A1.485,1.485,0,0,1,139.173,80.971Z" transform="translate(-132.339 -75.944)" fill="#50515b"/>
          </g>
          <path id="Path_6072" data-name="Path 6072" d="M92.909,125.8l-.08,0a7.3,7.3,0,0,1-6.3-3.636,1.484,1.484,0,0,1,2.578-1.473,4.362,4.362,0,0,0,3.883,2.145,1.484,1.484,0,0,1-.078,2.966Z" transform="translate(-45.462 -96.875)" fill="#fff"/>
          <path id="Path_6073" data-name="Path 6073" d="M105.451,137.726a47.856,47.856,0,0,1-4.227,5.692c-6.119,7.036-13.375,10.7-21.1,10.7-.709,0-1.421-.03-2.138-.093a1.484,1.484,0,0,1,.257-2.957c7.643.663,14.62-2.569,20.739-9.6a44.418,44.418,0,0,0,4.061-5.5Z" transform="translate(-37.629 -109.819)" fill="#d8254f"/>
          <g id="Group_5137" data-name="Group 5137" transform="translate(32.629 93.275)">
            <path id="Path_6074" data-name="Path 6074" d="M51.606,488.69a1.485,1.485,0,0,1-1.484,1.484H44.978A1.485,1.485,0,0,1,43.662,488c.53-1.013,1-2.023,1.415-3.024h3.2q-.421,1.1-.926,2.229h2.773A1.484,1.484,0,0,1,51.606,488.69Z" transform="translate(-43.493 -484.977)" fill="#3d8299"/>
            <path id="Path_6075" data-name="Path 6075" d="M127.614,488.69a1.484,1.484,0,0,1-1.484,1.484h-5.144A1.487,1.487,0,0,1,119.67,488q.8-1.52,1.417-3.024h3.2q-.421,1.1-.926,2.229h2.773A1.483,1.483,0,0,1,127.614,488.69Z" transform="translate(-104.883 -484.977)" fill="#3d8299"/>
          </g>
          <g id="Group_5138" data-name="Group 5138" transform="translate(72.974 12.23)">
            <path id="Path_6076" data-name="Path 6076" d="M273.539,94.119a1.478,1.478,0,0,1-.621-.137c-12.143-5.608-19.211-20.131-19.506-20.747a1.487,1.487,0,0,1-.146-.641V65.073a1.484,1.484,0,0,1,2.969,0v7.169c1.048,2.045,7.662,14.3,17.928,19.044a1.485,1.485,0,0,1-.624,2.832Z" transform="translate(-253.266 -63.589)" fill="#fcd2be"/>
            <path id="Path_6077" data-name="Path 6077" d="M349.873,391.817a1.484,1.484,0,0,1-1.269.714H343.46a1.484,1.484,0,0,1,0-2.969h2.771c-.336-.746-.643-1.486-.926-2.223a41.353,41.353,0,0,1-2.009-22.026,1.484,1.484,0,0,1,2.923.519,38.336,38.336,0,0,0,2.284,21.507q.623,1.5,1.415,3.02A1.482,1.482,0,0,1,349.873,391.817Z" transform="translate(-324.915 -306.296)" fill="#fcd2be"/>
            <path id="Path_6078" data-name="Path 6078" d="M400.164,391.8a1.484,1.484,0,0,1-1.269.714h-5.146a1.484,1.484,0,0,1,0-2.969h2.773q-.5-1.116-.924-2.223a41.334,41.334,0,0,1-2.009-22.032,1.485,1.485,0,0,1,2.923.523,38.306,38.306,0,0,0,2.282,21.509q.626,1.5,1.417,3.02A1.487,1.487,0,0,1,400.164,391.8Z" transform="translate(-365.532 -306.277)" fill="#fcd2be"/>
          </g>
          <path id="Path_6079" data-name="Path 6079" d="M332.989,46.193l-3.026-4.334-21.851-31.29C307.1,6.808,307.493.026,317.982.026A66.622,66.622,0,0,1,324.808.3c7.808.811,14.436,3.978,16.132,16.011C343.117,31.746,332.989,46.193,332.989,46.193Z" transform="translate(-224.289 -0.021)" fill="#6b4b3d"/>
          <path id="Path_6080" data-name="Path 6080" d="M404.669,47.332,401.643,43c.772-8.692,3.054-40.724-5.156-41.562,7.808.811,14.436,3.978,16.132,16.011C414.8,32.884,404.669,47.332,404.669,47.332Z" transform="translate(-295.968 -1.16)" fill="#5b3d2d"/>
          <path id="Path_6081" data-name="Path 6081" d="M309.858,205.972a60.557,60.557,0,0,0,21.06,1.122,39.035,39.035,0,0,0,7.242-1.518c0-26.322-10.2-38.6-10.2-38.6l-2.262.249-6.573.728C317.812,182.9,309.858,205.972,309.858,205.972Z" transform="translate(-226 -134.863)" fill="#00c7a9"/>
          <path id="Path_6082" data-name="Path 6082" d="M395.4,207.094a39.034,39.034,0,0,0,7.242-1.518c0-26.322-10.2-38.6-10.2-38.6l-2.262.249L389.7,168S398.876,187.665,395.4,207.094Z" transform="translate(-290.487 -134.863)" fill="#04af92"/>
          <g id="Group_5139" data-name="Group 5139" transform="translate(83.823 8.569)">
            <path id="Path_6083" data-name="Path 6083" d="M362.973,236.944c-2.364,0-4.18-1.569-5.491-2.7-.793-.685-1.686-1.462-2.176-1.422a1.82,1.82,0,0,0-.948.724,1.484,1.484,0,0,1-2.28-1.9,4.358,4.358,0,0,1,2.986-1.782c1.723-.141,3.063,1.015,4.359,2.133,1.812,1.565,3.014,2.483,4.8,1.68a1.337,1.337,0,0,0,.809-.953c.225-.825.252-2.885-2.091-7.406a48.265,48.265,0,0,0-3.036-5.031,1.484,1.484,0,0,1,2.422-1.717c.713,1,6.923,9.957,5.57,14.932a4.3,4.3,0,0,1-2.456,2.882A5.957,5.957,0,0,1,362.973,236.944Z" transform="translate(-343.645 -184.596)" fill="#fcd2be"/>
            <path id="Path_6084" data-name="Path 6084" d="M335.959,57.787a4.019,4.019,0,0,1-1.514.954,12.442,12.442,0,0,1-24.767-1.706v-10.5s5.516.2,7.693-1.979a11.237,11.237,0,0,0,9.991,4.5v0a11.818,11.818,0,0,0,2.921-.536v3.6l0,0a4.012,4.012,0,0,1,5.674,5.674Z" transform="translate(-309.678 -44.553)" fill="#fcd2be"/>
          </g>
          <path id="Path_6085" data-name="Path 6085" d="M400.586,74.409a4.019,4.019,0,0,1-1.514.954,12.447,12.447,0,0,1-9.377,10.382c6.462-3.545,2.349-19.854,2.294-20.074v0a11.818,11.818,0,0,0,2.921-.536v3.6l0,0a4.012,4.012,0,0,1,5.674,5.674Z" transform="translate(-290.482 -52.606)" fill="#fab998"/>
          <g id="Group_5140" data-name="Group 5140" transform="translate(87.608 14.601)">
            <path id="Path_6086" data-name="Path 6086" d="M358.66,80.946a1.484,1.484,0,0,1-1.484-1.484V77.4a1.484,1.484,0,1,1,2.969,0v2.058A1.484,1.484,0,0,1,358.66,80.946Z" transform="translate(-351.826 -75.919)" fill="#50515b"/>
            <path id="Path_6087" data-name="Path 6087" d="M330.841,80.946a1.484,1.484,0,0,1-1.484-1.484V77.4a1.484,1.484,0,1,1,2.969,0v2.058A1.484,1.484,0,0,1,330.841,80.946Z" transform="translate(-329.357 -75.919)" fill="#50515b"/>
          </g>
          <path id="Path_6088" data-name="Path 6088" d="M355.719,125.78a1.484,1.484,0,0,1-.078-2.966,4.361,4.361,0,0,0,3.883-2.145,1.484,1.484,0,1,1,2.577,1.473,7.3,7.3,0,0,1-6.3,3.636Z" transform="translate(-261.843 -96.856)" fill="#fff"/>
          <g id="Group_5141" data-name="Group 5141" transform="translate(90.035 93.275)">
            <path id="Path_6089" data-name="Path 6089" d="M349.917,488a1.483,1.483,0,0,1-1.314,2.171h-5.144a1.484,1.484,0,0,1,0-2.969h2.771c-.336-.746-.643-1.486-.926-2.223h3.2Q349.126,486.477,349.917,488Z" transform="translate(-341.975 -484.978)" fill="#f9ce55"/>
            <path id="Path_6090" data-name="Path 6090" d="M400.164,489.454a1.484,1.484,0,0,1-1.269.714h-5.146a1.484,1.484,0,0,1,0-2.969h2.773q-.5-1.116-.924-2.223h3.2q.626,1.5,1.417,3.02A1.487,1.487,0,0,1,400.164,489.454Z" transform="translate(-382.593 -484.977)" fill="#f9ce55"/>
          </g>
        </g>
      </g>
    </g>
  </g>
</svg>
