<svg xmlns="http://www.w3.org/2000/svg" width="19.785" height="13.861" viewBox="0 0 19.785 13.861">
  <path id="Shape_17" data-name="Shape 17" d="M1566.9,5336.673a2.48,2.48,0,0,0-1.744-1.745c-1.548-.424-7.741-.424-7.741-.424s-6.193,0-7.741.408a2.529,2.529,0,0,0-1.744,1.761,28.032,28.032,0,0,0,0,9.523,2.48,2.48,0,0,0,1.744,1.745c1.565.424,7.741.424,7.741.424s6.193,0,7.741-.408a2.48,2.48,0,0,0,1.744-1.745,26.157,26.157,0,0,0,.407-4.762A24.82,24.82,0,0,0,1566.9,5336.673Zm-11.457,7.729v-5.936l5.15,2.968Z" transform="translate(-1547.525 -5334.504)" fill="#fff"/>
</svg>
