<svg xmlns="http://www.w3.org/2000/svg" width="17.388" height="14.442" viewBox="0 0 17.388 14.442">
  <path id="Shape_11" data-name="Shape 11" d="M1605.823,5349.916a10.2,10.2,0,0,0,10.15-10.375c0-.158,0-.315-.01-.472a7.345,7.345,0,0,0,1.78-1.888,7,7,0,0,1-2.049.574,3.649,3.649,0,0,0,1.568-2.018,7.061,7.061,0,0,1-2.265.886,3.516,3.516,0,0,0-5.047-.158,3.7,3.7,0,0,0-1.032,3.484,10.054,10.054,0,0,1-7.352-3.811,3.7,3.7,0,0,0,1.1,4.869,3.486,3.486,0,0,1-1.619-.457v.046a3.63,3.63,0,0,0,2.862,3.575,3.5,3.5,0,0,1-1.611.063,3.581,3.581,0,0,0,3.333,2.532,7.038,7.038,0,0,1-5.28,1.512,9.941,9.941,0,0,0,5.468,1.635" transform="translate(-1600.355 -5335.474)" fill="#fff"/>
</svg>
